<svg xmlns="http://www.w3.org/2000/svg" xmlns:xlink="http://www.w3.org/1999/xlink" width="900" zoomAndPan="magnify" viewBox="0 0 675 675.000002" height="900" preserveAspectRatio="xMidYMid meet" version="1.0"><defs><g/><clipPath id="251650e530"><path d="M 0.5 0 L 674.5 0 L 674.5 674 L 0.5 674 Z M 0.5 0 " clip-rule="nonzero"/></clipPath><clipPath id="ac5c55222e"><path d="M 214 353 L 461 353 L 461 388.136719 L 214 388.136719 Z M 214 353 " clip-rule="nonzero"/></clipPath><clipPath id="d30c94b701"><path d="M 159.6875 200.164062 L 515.410156 200.164062 L 515.410156 365 L 159.6875 365 Z M 159.6875 200.164062 " clip-rule="nonzero"/></clipPath></defs><g clip-path="url(#251650e530)"><path fill="#ffffff" d="M 0.5 0 L 674.5 0 L 674.5 674 L 0.5 674 Z M 0.5 0 " fill-opacity="1" fill-rule="nonzero"/><path fill="#ffffff" d="M 0.5 0 L 674.5 0 L 674.5 674 L 0.5 674 Z M 0.5 0 " fill-opacity="1" fill-rule="nonzero"/></g><g clip-path="url(#ac5c55222e)"><path fill="#ffd369" d="M 337.519531 353.679688 C 337.511719 353.679688 337.503906 353.679688 337.496094 353.679688 C 337.488281 353.679688 337.480469 353.679688 337.46875 353.679688 C 337.429688 353.679688 337.394531 353.679688 337.355469 353.679688 C 273.191406 353.679688 229.0625 362.816406 214.546875 371.003906 C 229.082031 379.148438 273.160156 388.257812 337.269531 388.332031 L 337.722656 388.332031 C 401.828125 388.257812 445.910156 379.148438 460.445312 371.003906 C 445.929688 362.816406 401.800781 353.679688 337.636719 353.679688 C 337.597656 353.679688 337.558594 353.679688 337.519531 353.679688 " fill-opacity="1" fill-rule="nonzero"/></g><g clip-path="url(#d30c94b701)"><path fill="#ffd369" d="M 497.621094 271.933594 C 494.40625 274.636719 494.878906 276.835938 493.984375 279.277344 C 493.492188 280.625 492.9375 282.378906 490.527344 284.496094 C 490.527344 284.496094 459.460938 316.699219 438.652344 309.804688 C 407.820312 299.585938 424.738281 259.882812 424.738281 259.882812 L 427.917969 252.917969 C 429.5 249.449219 434.226562 248.015625 436.140625 246.847656 C 439.621094 244.726562 440.773438 245.453125 442.835938 240.933594 C 446.179688 233.609375 443.050781 220.683594 442.039062 217.96875 C 439.078125 219.519531 426.824219 226.296875 423.484375 233.621094 C 421.421875 238.144531 423.996094 240.777344 424.949219 244.195312 C 425.472656 246.078125 426.289062 248.507812 424.707031 251.976562 L 421.53125 258.941406 C 421.53125 258.941406 402.550781 297.089844 374.238281 297.34375 C 339.640625 297.652344 339.515625 241.316406 339.515625 241.316406 C 339.515625 237.175781 341.65625 234.867188 343.191406 233.050781 C 345.980469 229.742188 350.171875 227.769531 350.171875 222.367188 C 350.171875 213.851562 340.53125 203.292969 337.722656 200.398438 L 337.722656 200.34375 C 337.664062 200.285156 337.597656 200.210938 337.546875 200.160156 C 337.539062 200.167969 337.527344 200.179688 337.519531 200.1875 C 337.511719 200.183594 337.503906 200.171875 337.496094 200.164062 C 337.488281 200.171875 337.480469 200.183594 337.46875 200.1875 C 337.460938 200.179688 337.449219 200.167969 337.445312 200.160156 C 337.394531 200.210938 337.324219 200.285156 337.269531 200.34375 L 337.269531 200.398438 C 334.460938 203.292969 324.816406 213.851562 324.816406 222.367188 C 324.816406 227.769531 329.007812 229.742188 331.796875 233.050781 C 333.335938 234.867188 335.476562 237.175781 335.476562 241.316406 C 335.476562 241.316406 335.351562 297.652344 300.753906 297.34375 C 272.441406 297.089844 253.460938 258.941406 253.460938 258.941406 L 250.285156 251.976562 C 248.703125 248.507812 249.519531 246.078125 250.042969 244.195312 C 250.996094 240.777344 253.570312 238.144531 251.503906 233.621094 C 248.164062 226.296875 235.910156 219.519531 232.953125 217.96875 C 231.941406 220.683594 228.8125 233.609375 232.15625 240.933594 C 234.21875 245.453125 235.371094 244.726562 238.851562 246.847656 C 240.765625 248.015625 245.488281 249.449219 247.074219 252.917969 L 250.25 259.882812 C 250.25 259.882812 267.171875 299.585938 236.339844 309.804688 C 215.53125 316.699219 184.460938 284.496094 184.460938 284.496094 C 182.050781 282.378906 181.5 280.625 181.007812 279.277344 C 180.113281 276.835938 180.585938 274.636719 177.367188 271.933594 C 171.816406 267.269531 161.839844 264.492188 159.765625 264.003906 C 160.328125 265.980469 164.613281 275.5 169.699219 279.96875 C 172.84375 282.726562 175.792969 281.800781 178.433594 283.425781 C 207.945312 301.582031 210.289062 364.898438 210.289062 364.898438 L 210.542969 364.898438 C 214.648438 355.230469 269.8125 345.421875 337.304688 345.417969 C 337.335938 345.417969 337.65625 345.417969 337.683594 345.417969 C 405.179688 345.421875 460.339844 355.230469 464.445312 364.898438 L 464.699219 364.898438 C 464.699219 364.898438 467.046875 301.582031 496.554688 283.425781 C 499.195312 281.800781 502.148438 282.726562 505.289062 279.96875 C 510.375 275.5 514.664062 265.980469 515.222656 264.003906 C 513.152344 264.492188 503.171875 267.269531 497.621094 271.933594 " fill-opacity="1" fill-rule="nonzero"/></g><g fill="#ffd369" fill-opacity="1"><g transform="translate(195.441861, 426.790869)"><g><path d="M 8.34375 2.796875 L 24.703125 -45.859375 L 31.015625 -43.71875 L 15.9375 1.109375 L 41.03125 9.53125 L 39.75 13.359375 Z M 8.34375 2.796875 "/></g></g></g><g fill="#ffd369" fill-opacity="1"><g transform="translate(240.09738, 441.557879)"><g><path d="M 41 -8.609375 L 41.3125 -10.125 C 41.976562 -13.320312 42.097656 -16.1875 41.671875 -18.71875 C 41.253906 -21.257812 40.425781 -23.453125 39.1875 -25.296875 C 37.945312 -27.148438 36.375 -28.671875 34.46875 -29.859375 C 32.5625 -31.054688 30.460938 -31.894531 28.171875 -32.375 C 25.734375 -32.875 23.394531 -32.914062 21.15625 -32.5 C 18.925781 -32.09375 16.878906 -31.242188 15.015625 -29.953125 C 13.160156 -28.660156 11.566406 -26.96875 10.234375 -24.875 C 8.898438 -22.78125 7.9375 -20.289062 7.34375 -17.40625 C 6.851562 -15.019531 6.742188 -12.613281 7.015625 -10.1875 C 7.285156 -7.769531 7.988281 -5.503906 9.125 -3.390625 C 10.257812 -1.285156 11.878906 0.539062 13.984375 2.09375 C 16.085938 3.65625 18.71875 4.757812 21.875 5.40625 C 24.9375 6.039062 27.867188 6.085938 30.671875 5.546875 C 33.484375 5.003906 36.054688 3.925781 38.390625 2.3125 L 36.5625 -0.46875 C 35.382812 0.1875 34.273438 0.78125 33.234375 1.3125 C 32.191406 1.851562 31.164062 2.269531 30.15625 2.5625 C 29.15625 2.851562 28.132812 3.03125 27.09375 3.09375 C 26.0625 3.15625 24.941406 3.0625 23.734375 2.8125 C 22.398438 2.539062 21.019531 2.039062 19.59375 1.3125 C 18.175781 0.59375 16.929688 -0.421875 15.859375 -1.734375 C 14.796875 -3.054688 14.023438 -4.738281 13.546875 -6.78125 C 13.066406 -8.832031 13.125 -11.316406 13.71875 -14.234375 Z M 14.3125 -17.109375 C 14.707031 -19.015625 15.289062 -20.820312 16.0625 -22.53125 C 16.84375 -24.25 17.796875 -25.71875 18.921875 -26.9375 C 20.054688 -28.15625 21.351562 -29.050781 22.8125 -29.625 C 24.28125 -30.195312 25.898438 -30.300781 27.671875 -29.9375 C 31.066406 -29.226562 33.4375 -27.347656 34.78125 -24.296875 C 36.125 -21.253906 36.316406 -17.410156 35.359375 -12.765625 Z M 14.3125 -17.109375 "/></g></g></g><g fill="#ffd369" fill-opacity="1"><g transform="translate(284.039692, 450.401486)"><g><path d="M 22.625 -35.578125 C 26.1875 -35.265625 28.894531 -34.519531 30.75 -33.34375 C 32.601562 -32.175781 33.90625 -30.75 34.65625 -29.0625 C 35.414062 -27.375 35.773438 -25.472656 35.734375 -23.359375 C 35.691406 -21.253906 35.570312 -19.109375 35.375 -16.921875 L 33.59375 3.015625 L 27.6875 2.484375 L 28.015625 -1.09375 C 26.472656 0.132812 24.566406 1.050781 22.296875 1.65625 C 20.035156 2.269531 17.8125 2.476562 15.625 2.28125 C 13.53125 2.09375 11.707031 1.5625 10.15625 0.6875 C 8.613281 -0.1875 7.363281 -1.253906 6.40625 -2.515625 C 5.445312 -3.785156 4.765625 -5.171875 4.359375 -6.671875 C 3.953125 -8.179688 3.816406 -9.691406 3.953125 -11.203125 C 4.085938 -12.753906 4.515625 -14.28125 5.234375 -15.78125 C 5.960938 -17.289062 6.96875 -18.613281 8.25 -19.75 C 9.53125 -20.894531 11.054688 -21.78125 12.828125 -22.40625 C 14.609375 -23.039062 16.59375 -23.257812 18.78125 -23.0625 C 20.96875 -22.863281 23.007812 -22.25 24.90625 -21.21875 C 26.800781 -20.1875 28.316406 -18.832031 29.453125 -17.15625 L 29.734375 -20.296875 C 30.085938 -24.296875 29.753906 -27.320312 28.734375 -29.375 C 27.710938 -31.425781 25.617188 -32.59375 22.453125 -32.875 C 21.085938 -33 19.878906 -32.9375 18.828125 -32.6875 C 17.773438 -32.4375 16.816406 -32.039062 15.953125 -31.5 C 15.097656 -30.96875 14.289062 -30.285156 13.53125 -29.453125 C 12.769531 -28.617188 12 -27.671875 11.21875 -26.609375 L 7.765625 -30.75 C 8.503906 -31.414062 9.285156 -32.078125 10.109375 -32.734375 C 10.929688 -33.398438 11.914062 -33.976562 13.0625 -34.46875 C 14.207031 -34.957031 15.550781 -35.3125 17.09375 -35.53125 C 18.632812 -35.757812 20.476562 -35.773438 22.625 -35.578125 Z M 28.984375 -11.96875 C 28.785156 -12.582031 28.488281 -13.296875 28.09375 -14.109375 C 27.695312 -14.929688 27.164062 -15.738281 26.5 -16.53125 C 25.84375 -17.332031 25.023438 -18.035156 24.046875 -18.640625 C 23.078125 -19.253906 21.882812 -19.625 20.46875 -19.75 C 19.0625 -19.875 17.75 -19.707031 16.53125 -19.25 C 15.3125 -18.789062 14.253906 -18.144531 13.359375 -17.3125 C 12.472656 -16.488281 11.757812 -15.488281 11.21875 -14.3125 C 10.675781 -13.132812 10.34375 -11.882812 10.21875 -10.5625 C 10.082031 -9.007812 10.238281 -7.632812 10.6875 -6.4375 C 11.144531 -5.25 11.773438 -4.210938 12.578125 -3.328125 C 13.390625 -2.441406 14.316406 -1.753906 15.359375 -1.265625 C 16.398438 -0.773438 17.40625 -0.488281 18.375 -0.40625 C 19.300781 -0.320312 20.253906 -0.40625 21.234375 -0.65625 C 22.210938 -0.914062 23.15625 -1.3125 24.0625 -1.84375 C 24.96875 -2.382812 25.796875 -3.035156 26.546875 -3.796875 C 27.296875 -4.566406 27.941406 -5.421875 28.484375 -6.359375 Z M 28.984375 -11.96875 "/></g></g></g><g fill="#ffd369" fill-opacity="1"><g transform="translate(326.290622, 454.157571)"><g><path d="M 36.96875 -52.390625 L 30.734375 -52.21875 L 31.3125 -31.546875 L 31.015625 -31.53125 C 30.492188 -32.789062 29.816406 -33.835938 28.984375 -34.671875 C 28.160156 -35.503906 27.226562 -36.171875 26.1875 -36.671875 C 25.144531 -37.179688 24.046875 -37.539062 22.890625 -37.75 C 21.734375 -37.96875 20.566406 -38.0625 19.390625 -38.03125 C 16.960938 -37.957031 14.726562 -37.4375 12.6875 -36.46875 C 10.65625 -35.507812 8.914062 -34.175781 7.46875 -32.46875 C 6.03125 -30.769531 4.929688 -28.738281 4.171875 -26.375 C 3.410156 -24.007812 3.070312 -21.390625 3.15625 -18.515625 C 3.238281 -15.578125 3.726562 -12.929688 4.625 -10.578125 C 5.519531 -8.234375 6.734375 -6.238281 8.265625 -4.59375 C 9.804688 -2.945312 11.617188 -1.703125 13.703125 -0.859375 C 15.785156 -0.015625 18.039062 0.367188 20.46875 0.296875 C 26.238281 0.140625 29.984375 -2.234375 31.703125 -6.828125 L 32 -6.84375 L 32.171875 -0.90625 L 38.40625 -1.078125 Z M 31.765625 -15.578125 C 31.804688 -13.960938 31.578125 -12.425781 31.078125 -10.96875 C 30.585938 -9.507812 29.898438 -8.238281 29.015625 -7.15625 C 28.140625 -6.082031 27.085938 -5.222656 25.859375 -4.578125 C 24.640625 -3.929688 23.320312 -3.59375 21.90625 -3.5625 C 20.351562 -3.507812 18.882812 -3.742188 17.5 -4.265625 C 16.113281 -4.796875 14.890625 -5.65625 13.828125 -6.84375 C 12.765625 -8.03125 11.898438 -9.59375 11.234375 -11.53125 C 10.566406 -13.476562 10.191406 -15.820312 10.109375 -18.5625 C 10.035156 -21.332031 10.273438 -23.703125 10.828125 -25.671875 C 11.390625 -27.640625 12.175781 -29.265625 13.1875 -30.546875 C 14.207031 -31.828125 15.390625 -32.765625 16.734375 -33.359375 C 18.078125 -33.960938 19.507812 -34.289062 21.03125 -34.34375 C 22.394531 -34.375 23.695312 -34.125 24.9375 -33.59375 C 26.175781 -33.070312 27.273438 -32.273438 28.234375 -31.203125 C 29.191406 -30.128906 29.972656 -28.816406 30.578125 -27.265625 C 31.191406 -25.710938 31.523438 -23.9375 31.578125 -21.9375 Z M 31.765625 -15.578125 "/></g></g></g><g fill="#ffd369" fill-opacity="1"><g transform="translate(372.46767, 452.163932)"><g><path d="M 4.78125 -53.515625 L -2.125 -52.75 L -0.046875 -33.9375 L 2.578125 -34.21875 Z M 4.78125 -53.515625 "/></g></g></g><g fill="#ffd369" fill-opacity="1"><g transform="translate(389.467058, 451.483779)"><g><path d="M -2 -25.859375 C -1.40625 -23.179688 -0.257812 -20.441406 1.4375 -17.640625 C 3.144531 -14.835938 5.378906 -12.390625 8.140625 -10.296875 C 10.910156 -8.210938 14.175781 -6.695312 17.9375 -5.75 C 21.707031 -4.8125 25.953125 -4.867188 30.671875 -5.921875 C 33.878906 -6.640625 36.691406 -7.679688 39.109375 -9.046875 C 41.535156 -10.421875 43.640625 -12 45.421875 -13.78125 C 47.203125 -15.570312 48.660156 -17.507812 49.796875 -19.59375 C 50.941406 -21.6875 51.785156 -23.804688 52.328125 -25.953125 C 52.878906 -28.097656 53.1875 -30.207031 53.25 -32.28125 C 53.320312 -34.351562 53.160156 -36.273438 52.765625 -38.046875 C 52.171875 -40.710938 50.988281 -43.4375 49.21875 -46.21875 C 47.445312 -49 45.128906 -51.421875 42.265625 -53.484375 C 39.398438 -55.554688 36.023438 -57.046875 32.140625 -57.953125 C 28.253906 -58.867188 23.921875 -58.796875 19.140625 -57.734375 C 14.421875 -56.679688 10.550781 -54.945312 7.53125 -52.53125 C 4.519531 -50.113281 2.203125 -47.382812 0.578125 -44.34375 C -1.046875 -41.300781 -2.03125 -38.132812 -2.375 -34.84375 C -2.726562 -31.5625 -2.601562 -28.566406 -2 -25.859375 Z M 5.015625 -27.421875 C 4.273438 -30.753906 4.109375 -33.929688 4.515625 -36.953125 C 4.921875 -39.972656 5.789062 -42.679688 7.125 -45.078125 C 8.46875 -47.472656 10.234375 -49.503906 12.421875 -51.171875 C 14.609375 -52.835938 17.132812 -53.988281 20 -54.625 C 22.800781 -55.25 25.582031 -55.273438 28.34375 -54.703125 C 31.101562 -54.140625 33.648438 -53.066406 35.984375 -51.484375 C 38.316406 -49.910156 40.34375 -47.847656 42.0625 -45.296875 C 43.78125 -42.753906 45.007812 -39.816406 45.75 -36.484375 C 46.5 -33.140625 46.632812 -29.945312 46.15625 -26.90625 C 45.675781 -23.875 44.710938 -21.144531 43.265625 -18.71875 C 41.828125 -16.289062 39.976562 -14.234375 37.71875 -12.546875 C 35.457031 -10.867188 32.925781 -9.71875 30.125 -9.09375 C 27.257812 -8.457031 24.484375 -8.429688 21.796875 -9.015625 C 19.109375 -9.597656 16.648438 -10.691406 14.421875 -12.296875 C 12.191406 -13.910156 10.253906 -16 8.609375 -18.5625 C 6.960938 -21.125 5.765625 -24.078125 5.015625 -27.421875 Z M 5.015625 -27.421875 "/></g></g></g><g fill="#ffd369" fill-opacity="1"><g transform="translate(454.023666, 435.757831)"><g><path d="M -6.953125 -36.46875 L 5.515625 -2 L 11.375 -4.109375 L 3.84375 -24.9375 C 3.164062 -26.820312 2.8125 -28.5 2.78125 -29.96875 C 2.75 -31.4375 2.921875 -32.707031 3.296875 -33.78125 C 3.679688 -34.851562 4.222656 -35.722656 4.921875 -36.390625 C 5.617188 -37.066406 6.359375 -37.546875 7.140625 -37.828125 C 8.203125 -38.210938 9.304688 -38.21875 10.453125 -37.84375 C 11.597656 -37.476562 12.476562 -37.070312 13.09375 -36.625 L 13.90625 -41.75 C 13.289062 -42.15625 12.628906 -42.4375 11.921875 -42.59375 C 11.210938 -42.75 10.53125 -42.828125 9.875 -42.828125 C 9.226562 -42.835938 8.648438 -42.785156 8.140625 -42.671875 C 7.640625 -42.566406 7.28125 -42.472656 7.0625 -42.390625 C 5.125 -41.691406 3.703125 -40.582031 2.796875 -39.0625 C 1.890625 -37.539062 1.398438 -35.597656 1.328125 -33.234375 L 0.90625 -33.078125 L -1.09375 -38.578125 Z M -6.953125 -36.46875 "/></g></g></g></svg>